<mxfile host="Electron" modified="2024-09-30T16:45:39.575Z" agent="Mozilla/5.0 (Windows NT 10.0; Win64; x64) AppleWebKit/537.36 (KHTML, like Gecko) draw.io/24.1.0 Chrome/120.0.6099.109 Electron/28.1.0 Safari/537.36" etag="bu-epvIfK6Sqb3QS1Me_" version="24.1.0" type="device">
  <diagram name="Page-1" id="FhxooTusR4e-flnM-h23">
    <mxGraphModel dx="1221" dy="823" grid="1" gridSize="10" guides="1" tooltips="1" connect="1" arrows="1" fold="1" page="1" pageScale="1" pageWidth="850" pageHeight="1100" math="0" shadow="0">
      <root>
        <mxCell id="0" />
        <mxCell id="1" parent="0" />
        <mxCell id="w646-Io4uiSVJ3ixSqgF-15" value="" style="shape=image;verticalLabelPosition=bottom;labelBackgroundColor=default;verticalAlign=top;aspect=fixed;imageAspect=0;image=data:image/png,iVBORw0KGgoAAAANSUhEUgAAAFMAAABQCAYAAABlJkmuAAAAAXNSR0IArs4c6QAAAARnQU1BAACxjwv8YQUAAAAJcEhZcwAAFxEAABcRAcom8z8AABH9SURBVHhe7ZwJeBRVtsd5+kZ9M87zuc04zjjj6Lzvvee4gKiIyiogIjuyuKKCooijgqKyCSqL7DsBEvZVQHwCCiKIbK7sZN+TTncnnfSWkLW7//M/1VWhjUW6qrvJN2rO9/2/m+7cOnXvr84591ZVoAkaLWbWCDOG1ggzhtYIM4bWCDOG1ggzhmYYZrUPyHDU4KSlGqcKzOkEj0kvrEFFdUDx5ToTUPxE4kt0PL8amUU++IPuUFUTQJHXjwK3DxaXD3lOH3JLfMihsh0+ZHLcGUU1SOMYUuw1SLbVINFao/hKYus84w86itIMwSyrCmDbyQqM2OLB0A1uvGhSz651YdLOUlg5WbFvcqoVP0PX6/cPp8GrXZi+u4wQFXfIIrBZe8owfkcpJlBvby/F2G1ejPnYi1EfefHmRx6M/NCD1zj+4Zs9eGWTBy9/4MEw+nppowfz9pUpFyFaMwRTIut5TrzPEiceWeYyrd487o2tXuSpAz6YUYVH+X3/BP3+4dRzsRPjtpWikhEpdsJSg0FrXMr4+sU70V9TQlADeJ5QPRJy3n7x/I7t6q/PKL6iMUMwv0jj5Jc78Rj1eATqu7QEbzE6tKv/VVYVBq50Eqh+/3Dqs6QE47d7a2FKur6wXiDp9w8nuQBTd5cqvqIxQzD3EaaAjHTyGsx8FebX2VV4ahX9RTj5WMKUefXj+N7/rIFg7k+vwhMrJMWDJzerhzlYqVsazG9yqvD0avrj5PX6h1Nvwnw7BOZJwnyeMAdE4E8yTi52g8E8wBoXE5hcZcW+y63GM6xxkUxepAtz3U8JJmvcAMKUkz+6rCTYagrzuc+SYrwRAvMIYQ7mCi+Lg1lf8rkXYY4jzIo6kdk/gX1D+xvw9QjbPoQ5paFgHsyswpOE2T9eHYwMSpOBzwrMre5amEfzqvGcArNOf4O+ey0uJkzPD2AOCYUZ0jfc50coGV+DwTykwuxHmHJys+rFwY4MgXmMm26ZfN8I/fVUYYam+RCmeSTjG0D1bkiYhwlTVl9t8jIAM60GU+5MxIL71iBMoz5CW4E5NgTmCcJ8jjAjGZ9IgbnLq/iKxgzBlH2hBlMbgBn15GBfD4Ept5FDN7jwcIT+etSBKZGpwdTrX5/6U3KxJzcYTHVfKKuy1CWzksm//uFZmKeshLlR7oz0+4dT97hijNkWEpm8OM+ujWx8/SiJ9EkNCXPgaqbD0mL0TTCvbnEOjPjQVQvzNGG+SJg9lzh0+4dTV/obvc39A5iDCDOS8T1MdV/swMSGgil3LANXBdP14Xjz6rrIgeEhMJNs1Rj2gYsR69DtH04P0d+oj8/CPE6Yz6xxKumq178+9aHkYk/c6VF8RWOGYModi0RmD0aSnNysZPKvhsBMtlfjpU0udCNMvf7h1IX+3qoD8+k1Mj79/vWpNyWR/l5DwZQFqN+yYnSYV4jOC4tMq+3sQjy/wYnsEg1mDV7YUIIO8wsJpsi02s0tZNlw1j4fPcqtVn9lfPrnr08PUO3mFLIGuxVf0ZghmKmFNZi+x4txO9yY8KnHtKS+xR0oRVFp8CFsHqFO+9zL6HQq6W9WL37gxJx9Z28n5eGv+Ht7h/75w2nMdjfWftdAj+DkSXbJGT8cZX4URyAHIbrK/fCpD7QFgjz0SC+qUUCYlRwnj/Nqn7T7OD45T53zGpUc56mI/mm7IZiNZswMwbS4fdiVXI6dlLRm9UlSOQ5lVaKsMhhK8q5GfEXqb0diORfFSkZ60J/NQ388x84U/f7h9CmPPZJXpfiKxgzB3JtWyQWI25gEh9KaVfclRXhtq6zmwZc2+zMq0ZffR+qv2+Iipc5VqgvQocxKrszcs+r0DSc5psfSIkz6rIFW813JFVz1CpXVt9MC82o9244hXL2zS4Iw96RWKN9H6u++WXa8vOXsar4vvQL301fHCPx1pNrMsSv71mjNEMzdKRXoEifbiEI8uMi82s2144WNJchRYe5Lr0RXRlek/mTyw7k10iLzy4zgxY7EX2eq/Ty7EunRmiGYnzOSusQxkmTAPLlZtSHM50Ngfsk078rU78Co0OsfTq0I85WQfeZ+wuzE7ztGMD45ri1hjt7uUnxFY4ZhPhhnZyrZ0WmhnYM217aaY8OQjcW1MA+wxnVdUqj4M+ojtL1vtg3/2FLyQ5j8vsMC4z60VtR6rg2jGhJmZ8JsxysoAzYrmfyzG4pra+ZBruzdCDNSf/fMUmGqm/b9mUGY7Xlx9PrXp/up+3ix39zmVHxFY4ZgyoIhMNvMs6H9Amq+ubblLCsGbXDUwpRtUvelXJjEn0Efoe3d9Ddsc3EIzEolwtpGML521L2zrQ0IM40FnjBbMR3a8uRm1YKTf2b9WZiHswkznqtyhP7ummnF0BCYBxiZHRbalIuj178+taHuJsyRH5covqIxgzDLWah5BecUMDqtpnXXzAI8va4IWSrMr7jh7hHPdJ0dmb87ZhRg6CbCVGumBvO+Ofr961NrqsWsArzeUDD3KjCtvIIWRlOBaTWfYcHAtWdhyt2LwGwxKzJ/zaZb8PwHjrORmcV95kIrWvLi6PUPVUueU4JC+3wvdcdMC0b8f0PBTC9HR8JsQZhy8nvUQRhtmxHmk4SZWRyE+W1eJXom2HEnJ2bUR2jblDCfE5haZKowWxDmuY65m+dqQWgdljLD5hUwW/Jxz5zg+W/n98M/akCYHQjzzln5aMkBmFXT6fl4fE0hslSY3+cT5jIbmnNCev3D6dZp+Xh2Y1EtzIOE2X4hARFY3b6STc15/lbzC/AYgY09Vo6X9nnx0KpC3Mnzi5rOyMerHxUrvqIxQzC/UGHK5CU1zerWqfl4jDAzi6sVf0cJszdhNuMk9fqH083v52MwYZZXBx+bKTAXMF2ZAUofApRWIEoE9uLi99pXZVhk82MVb3RWcOGeklaNwTvdaBNnxU2Tc/GPDx2Kr2jMGExuiu9fJOmVp0SnWd08NQ+PrLYjw6HCLKhC7+U23Bahv5vez8MzGwprYR7KrkA7RmYzRpj8vjnbZtNy0THBhqF7vZiVU4MV3JMvYybHk5lIPks75lgFerJkjPi4gSJzX0Y5YUp65TI680zrpvdz0X+VrRbmcWsV+qyw4ZYI/f3vlFw8td7+A5htF1iUiyNjbDnPgqc+cWFSSpUCUCJRgxgq+d1KQp2V68PclErYgsOL2AzXzNbz8/E/k3MYZbmmdePEHPRabkW6CvMEI7PnMiv+e1Jk/v76XjbLhu0sTKb5vXPyFZB9Njkw+mg5FtsDWMmUTmDA6YEMlQZ8IyVvL7wRPnQ3BPN4QSVe3lqEJ9YV4mmml1k9usaOsTtLUOAOLkBZJdUY+2kJHltr1+0fTlIyJu521r4DOmWtxIvbS/DKoVLMyfP9KKWNalFRsJWncckVgLq+GTZDMGXQdq8PBR5RDawhMvLZQohFZT7UqE/Gq9nKZ/k+tL9R33Kcg8eLlTOKDnsCWFzgQzyjcPk5UtqollBxhLqSvnZ5ADMP4A3B/Fe19MpgFK1gFEokGklpo1osItQ19HuwFFDfUtdrhmCmFlUj/huPogRFbrU19jnuKxc+PFUGZ3lwRGmsnUtr+5jzlfCtG+uSyvFxSQBrOVGJJJEekGi1lBKgcpE2s3QcLQugUnslqmOGYG45WYq/T8/B36fl4Ba2ZvW3KdnovZILkLrP/Oh0Kf5varZpfzdPy8ats3PR4TM3Xsn3YyEnu0xVAqUHJBqJz+VqtE+3VOGl0w4cd7OYnsMMwdx43IvrJ2bhL9RfJwV1g9oa+fz7CRnovNSiRLjY5hOluO69zFp/Rn1dz2Nu5EVouduNnjZgSCEwjRNVooetQK0LJFIJRPG30O7D8GQX2h3MRdv92fjOGQOYymSoGydzcpSZ9pp3MtElXmAGq/mWk178eWJmEFSdvvW1N/CYvzE67xWYdqCHFehHqMOsAUy0+BHH75YTQDRRuowQV1CL7X6MyShD928K0HxvJm7+PB3tDuTgiCsGMGXyousnmdfvxqfjgaX5SHUEYW5m2fgTo8ysv7+8l4EbpmYpMHsRXE/CFKDdqV55fgyjZtgCWFoYUCLLDFSBuFLZTgUwJbcCTxzjvfsXWWi6JxPNqNv2ZKB9LGBuIMw/cSKiP080r6veTkOnJXm1kbmJkXntu+b9XfduOq5/Pwv3sGZqMDUJ1G4FjNQcP0bm846Gm/ZlTH+t5p1LAlx2A/HsO9NSjWGJTtzHdL7t8ww0Y0TeripmMNcf8+IPnLwA+CMBmNXl49LQIQTmBye8+P07GYpPvf7n0rXvpOO6KZm4+zPXj2BqkijtXhDAU7l+jJVFilAlbSXy6oJcTohSFqbnV+OlRDc6HuY9PaNQolGDGHOY6455OPl0RX9gdJjVZWNT0X5xLlJUmBsJ8+oJ5v1dMyENf5yciRb1wNTUjeqeG8BQ3hFNIlxJfYGqLFRqSs+3+TAixYsHD1kVgAIsNBrPG8yrOZGrVABm9dsxqWgbJzC5y6ZJDb5yfFotUKP6HY+5lrWzxa7wMDVJ6vdl6g9nlM6w+pHAdF7CaB2bcQYDvitSFpdbCUoPYKhiBnPtUY8y+SsUAOb169EpaLMwB8mFQZgbjntw+dupKlDjuorHXMN0v9METFEPrvgPWQJ4nAvUuAI/Bp9y4Z4vsnEL62JTHXB6ihnM1UfdrHup+C/Wviu5mFxBmWkvfisFrQgzqTCY5hLp/8nUl1pq1Ie0V/CYqwnzjp1O9DYIU1mYqAEE+ir3pa9wceqY5EWLb20KpGYGolIUM5irjrhZ91IIIIUAUgjVXPurN5Nw74LsEJhuXDomWfFn1Ie0l/GYK99NQ/NPSwzBFIi9qRfZdwrTWxYdicyHCbZrXg3u56Jz92FLEGgYqDGDuZIwLx2Tgt9QAsCsLnwjCS3nn4W5ljB/PTpZ8anX/1z6LY+5/J003B4GpqzoEpGDCW0CIS4ixBWULD5jCLOP9OPvRA9lV6HtcSfu/DKn3iiNGcwV37vwH5zIJdRvGB0SVWbaJiMT0WJeFhLVmrmGZeOSUUkqUGM+lJbHXDYhFc0+IUymbF2I2gb+MUIaxd/PJ8i69+4aTOkrx0jt7cHVvnNGOVodKUTzL5j6rKXnDeay79y4iBO5aFQioSaZVpPXT+OOuZlItAdhSg3+1VtJuJg+9fqfS5e8lYhLx6egaR2YGsS+1KuEM1NNadlDanvKc8FUgBK+QO1u8aFTailafm1VU/88wFzH1Veio8kbpxUI/05Jqync5yYjTqPZ7EycVmGuJMwmbyTiQtZSM74u4DEXs3beqsLUIPaihqh1UZ5D6t2f1wczFKqkfjfW0/an3bjrYF4QqLoHjQnMZO4PH0jIwQUjT+MCRkddXRjmc5MRp3DbnBCYR1zKhWnyZvhjQz//G4+5aFwybt5RjJ5qZA7k5Cfw59DHcaEQNRmBqUmBag0o9bT1MQea78tW9qLteJsZNcxAQB7oVmHqPgcGbynA4M2UtAY1cKMF43cXKa8dxA7nnsEz9DHIpJ/Bmy0YtNWK/t+XoT8nPJLROF8FdS6IoZJ+42zhYYqU1KeUeppegbu+saH1wRx87ypX5qBnhmBq5iNUeR8kf+MjrVFJf/m3OnJRND/ynVk/Ik91AJ94ApguKU0JIC3qwkn6vWPn1oiwpDzoQfyRCLQr2we54X8yvRSJpcEdiZ6ZgvmvYlIsjpwB1qsvzwRqXXB6MgtT9qkP8XZUNvyTiwM4WcGACA5B136SMDVz+IAvS7k7KA6+UQz3LsgoTPndg4TYi3VzRKEfu7x+VNXz7keznzRMzbKYeTs8wWeX8u5bXoRFCrMLIXZlnRxiC2C1yw+n1CSD9rOAKcZyipNcG+QtosCUSDUDU+piZwvwOKNxrtOPVKa0WfvZwNSMwQT5P/KknkqUhqa+HkxpH2A09mY0vusI4ECZjwuleZBiPzuYmuVXA3u93DIx9ReqqV8XptTFLpYAhrMubmVdLDWR0nr2s4UpJrvaVC7921lP5c5IUn8C95lyx9SJIAfx5xVuP3KqIvxLrTr2s4apmfxV2zGm/ibW09EE2Nfix4wSP44r/8Y8umgMtV8ETM2KGKo7vQHsLwtEndJ69ouCKSar/vmyXxzM82mNMGNojTBjaI0wY2iNMGNmwD8BHUnMNXggPnwAAAAASUVORK5CYII=;" parent="1" vertex="1">
          <mxGeometry x="184.69" y="487" width="72.62" height="70" as="geometry" />
        </mxCell>
        <mxCell id="w646-Io4uiSVJ3ixSqgF-18" value="&lt;div style=&quot;&quot;&gt;&lt;span style=&quot;background-color: initial;&quot;&gt;&lt;b&gt;client&lt;/b&gt;&lt;/span&gt;&lt;/div&gt;&lt;div style=&quot;&quot;&gt;client_id&lt;/div&gt;&lt;div style=&quot;&quot;&gt;client secret /&lt;/div&gt;&lt;div style=&quot;&quot;&gt;certificate&lt;/div&gt;" style="text;html=1;align=left;verticalAlign=middle;whiteSpace=wrap;rounded=0;" parent="1" vertex="1">
          <mxGeometry x="150" y="320" width="80" height="70" as="geometry" />
        </mxCell>
        <mxCell id="w646-Io4uiSVJ3ixSqgF-19" value="&lt;div style=&quot;&quot;&gt;&lt;span style=&quot;background-color: initial;&quot;&gt;&lt;b&gt;resource&lt;/b&gt;&lt;/span&gt;&lt;/div&gt;&lt;div&gt;application&amp;nbsp;&lt;/div&gt;&lt;div&gt;App role&lt;/div&gt;" style="text;html=1;align=left;verticalAlign=middle;whiteSpace=wrap;rounded=0;" parent="1" vertex="1">
          <mxGeometry x="682.62" y="290" width="70" height="60" as="geometry" />
        </mxCell>
        <mxCell id="w646-Io4uiSVJ3ixSqgF-35" value="" style="shape=image;verticalLabelPosition=bottom;labelBackgroundColor=default;verticalAlign=top;aspect=fixed;imageAspect=0;image=data:image/png,iVBORw0KGgoAAAANSUhEUgAAAFMAAABQCAYAAABlJkmuAAAAAXNSR0IArs4c6QAAAARnQU1BAACxjwv8YQUAAAAJcEhZcwAAFxEAABcRAcom8z8AABH9SURBVHhe7ZwJeBRVtsd5+kZ9M87zuc04zjjj6Lzvvee4gKiIyiogIjuyuKKCooijgqKyCSqL7DsBEvZVQHwCCiKIbK7sZN+TTncnnfSWkLW7//M/1VWhjUW6qrvJN2rO9/2/m+7cOnXvr84591ZVoAkaLWbWCDOG1ggzhtYIM4bWCDOG1ggzhmYYZrUPyHDU4KSlGqcKzOkEj0kvrEFFdUDx5ToTUPxE4kt0PL8amUU++IPuUFUTQJHXjwK3DxaXD3lOH3JLfMihsh0+ZHLcGUU1SOMYUuw1SLbVINFao/hKYus84w86itIMwSyrCmDbyQqM2OLB0A1uvGhSz651YdLOUlg5WbFvcqoVP0PX6/cPp8GrXZi+u4wQFXfIIrBZe8owfkcpJlBvby/F2G1ejPnYi1EfefHmRx6M/NCD1zj+4Zs9eGWTBy9/4MEw+nppowfz9pUpFyFaMwRTIut5TrzPEiceWeYyrd487o2tXuSpAz6YUYVH+X3/BP3+4dRzsRPjtpWikhEpdsJSg0FrXMr4+sU70V9TQlADeJ5QPRJy3n7x/I7t6q/PKL6iMUMwv0jj5Jc78Rj1eATqu7QEbzE6tKv/VVYVBq50Eqh+/3Dqs6QE47d7a2FKur6wXiDp9w8nuQBTd5cqvqIxQzD3EaaAjHTyGsx8FebX2VV4ahX9RTj5WMKUefXj+N7/rIFg7k+vwhMrJMWDJzerhzlYqVsazG9yqvD0avrj5PX6h1Nvwnw7BOZJwnyeMAdE4E8yTi52g8E8wBoXE5hcZcW+y63GM6xxkUxepAtz3U8JJmvcAMKUkz+6rCTYagrzuc+SYrwRAvMIYQ7mCi+Lg1lf8rkXYY4jzIo6kdk/gX1D+xvw9QjbPoQ5paFgHsyswpOE2T9eHYwMSpOBzwrMre5amEfzqvGcArNOf4O+ey0uJkzPD2AOCYUZ0jfc50coGV+DwTykwuxHmHJys+rFwY4MgXmMm26ZfN8I/fVUYYam+RCmeSTjG0D1bkiYhwlTVl9t8jIAM60GU+5MxIL71iBMoz5CW4E5NgTmCcJ8jjAjGZ9IgbnLq/iKxgzBlH2hBlMbgBn15GBfD4Ept5FDN7jwcIT+etSBKZGpwdTrX5/6U3KxJzcYTHVfKKuy1CWzksm//uFZmKeshLlR7oz0+4dT97hijNkWEpm8OM+ujWx8/SiJ9EkNCXPgaqbD0mL0TTCvbnEOjPjQVQvzNGG+SJg9lzh0+4dTV/obvc39A5iDCDOS8T1MdV/swMSGgil3LANXBdP14Xjz6rrIgeEhMJNs1Rj2gYsR69DtH04P0d+oj8/CPE6Yz6xxKumq178+9aHkYk/c6VF8RWOGYModi0RmD0aSnNysZPKvhsBMtlfjpU0udCNMvf7h1IX+3qoD8+k1Mj79/vWpNyWR/l5DwZQFqN+yYnSYV4jOC4tMq+3sQjy/wYnsEg1mDV7YUIIO8wsJpsi02s0tZNlw1j4fPcqtVn9lfPrnr08PUO3mFLIGuxVf0ZghmKmFNZi+x4txO9yY8KnHtKS+xR0oRVFp8CFsHqFO+9zL6HQq6W9WL37gxJx9Z28n5eGv+Ht7h/75w2nMdjfWftdAj+DkSXbJGT8cZX4URyAHIbrK/fCpD7QFgjz0SC+qUUCYlRwnj/Nqn7T7OD45T53zGpUc56mI/mm7IZiNZswMwbS4fdiVXI6dlLRm9UlSOQ5lVaKsMhhK8q5GfEXqb0diORfFSkZ60J/NQ388x84U/f7h9CmPPZJXpfiKxgzB3JtWyQWI25gEh9KaVfclRXhtq6zmwZc2+zMq0ZffR+qv2+Iipc5VqgvQocxKrszcs+r0DSc5psfSIkz6rIFW813JFVz1CpXVt9MC82o9244hXL2zS4Iw96RWKN9H6u++WXa8vOXsar4vvQL301fHCPx1pNrMsSv71mjNEMzdKRXoEifbiEI8uMi82s2144WNJchRYe5Lr0RXRlek/mTyw7k10iLzy4zgxY7EX2eq/Ty7EunRmiGYnzOSusQxkmTAPLlZtSHM50Ngfsk078rU78Co0OsfTq0I85WQfeZ+wuzE7ztGMD45ri1hjt7uUnxFY4ZhPhhnZyrZ0WmhnYM217aaY8OQjcW1MA+wxnVdUqj4M+ojtL1vtg3/2FLyQ5j8vsMC4z60VtR6rg2jGhJmZ8JsxysoAzYrmfyzG4pra+ZBruzdCDNSf/fMUmGqm/b9mUGY7Xlx9PrXp/up+3ix39zmVHxFY4ZgyoIhMNvMs6H9Amq+ubblLCsGbXDUwpRtUvelXJjEn0Efoe3d9Ddsc3EIzEolwtpGML521L2zrQ0IM40FnjBbMR3a8uRm1YKTf2b9WZiHswkznqtyhP7ummnF0BCYBxiZHRbalIuj178+taHuJsyRH5covqIxgzDLWah5BecUMDqtpnXXzAI8va4IWSrMr7jh7hHPdJ0dmb87ZhRg6CbCVGumBvO+Ofr961NrqsWsArzeUDD3KjCtvIIWRlOBaTWfYcHAtWdhyt2LwGwxKzJ/zaZb8PwHjrORmcV95kIrWvLi6PUPVUueU4JC+3wvdcdMC0b8f0PBTC9HR8JsQZhy8nvUQRhtmxHmk4SZWRyE+W1eJXom2HEnJ2bUR2jblDCfE5haZKowWxDmuY65m+dqQWgdljLD5hUwW/Jxz5zg+W/n98M/akCYHQjzzln5aMkBmFXT6fl4fE0hslSY3+cT5jIbmnNCev3D6dZp+Xh2Y1EtzIOE2X4hARFY3b6STc15/lbzC/AYgY09Vo6X9nnx0KpC3Mnzi5rOyMerHxUrvqIxQzC/UGHK5CU1zerWqfl4jDAzi6sVf0cJszdhNuMk9fqH083v52MwYZZXBx+bKTAXMF2ZAUofApRWIEoE9uLi99pXZVhk82MVb3RWcOGeklaNwTvdaBNnxU2Tc/GPDx2Kr2jMGExuiu9fJOmVp0SnWd08NQ+PrLYjw6HCLKhC7+U23Bahv5vez8MzGwprYR7KrkA7RmYzRpj8vjnbZtNy0THBhqF7vZiVU4MV3JMvYybHk5lIPks75lgFerJkjPi4gSJzX0Y5YUp65TI680zrpvdz0X+VrRbmcWsV+qyw4ZYI/f3vlFw8td7+A5htF1iUiyNjbDnPgqc+cWFSSpUCUCJRgxgq+d1KQp2V68PclErYgsOL2AzXzNbz8/E/k3MYZbmmdePEHPRabkW6CvMEI7PnMiv+e1Jk/v76XjbLhu0sTKb5vXPyFZB9Njkw+mg5FtsDWMmUTmDA6YEMlQZ8IyVvL7wRPnQ3BPN4QSVe3lqEJ9YV4mmml1k9usaOsTtLUOAOLkBZJdUY+2kJHltr1+0fTlIyJu521r4DOmWtxIvbS/DKoVLMyfP9KKWNalFRsJWncckVgLq+GTZDMGXQdq8PBR5RDawhMvLZQohFZT7UqE/Gq9nKZ/k+tL9R33Kcg8eLlTOKDnsCWFzgQzyjcPk5UtqollBxhLqSvnZ5ADMP4A3B/Fe19MpgFK1gFEokGklpo1osItQ19HuwFFDfUtdrhmCmFlUj/huPogRFbrU19jnuKxc+PFUGZ3lwRGmsnUtr+5jzlfCtG+uSyvFxSQBrOVGJJJEekGi1lBKgcpE2s3QcLQugUnslqmOGYG45WYq/T8/B36fl4Ba2ZvW3KdnovZILkLrP/Oh0Kf5varZpfzdPy8ats3PR4TM3Xsn3YyEnu0xVAqUHJBqJz+VqtE+3VOGl0w4cd7OYnsMMwdx43IvrJ2bhL9RfJwV1g9oa+fz7CRnovNSiRLjY5hOluO69zFp/Rn1dz2Nu5EVouduNnjZgSCEwjRNVooetQK0LJFIJRPG30O7D8GQX2h3MRdv92fjOGQOYymSoGydzcpSZ9pp3MtElXmAGq/mWk178eWJmEFSdvvW1N/CYvzE67xWYdqCHFehHqMOsAUy0+BHH75YTQDRRuowQV1CL7X6MyShD928K0HxvJm7+PB3tDuTgiCsGMGXyousnmdfvxqfjgaX5SHUEYW5m2fgTo8ysv7+8l4EbpmYpMHsRXE/CFKDdqV55fgyjZtgCWFoYUCLLDFSBuFLZTgUwJbcCTxzjvfsXWWi6JxPNqNv2ZKB9LGBuIMw/cSKiP080r6veTkOnJXm1kbmJkXntu+b9XfduOq5/Pwv3sGZqMDUJ1G4FjNQcP0bm846Gm/ZlTH+t5p1LAlx2A/HsO9NSjWGJTtzHdL7t8ww0Y0TeripmMNcf8+IPnLwA+CMBmNXl49LQIQTmBye8+P07GYpPvf7n0rXvpOO6KZm4+zPXj2BqkijtXhDAU7l+jJVFilAlbSXy6oJcTohSFqbnV+OlRDc6HuY9PaNQolGDGHOY6455OPl0RX9gdJjVZWNT0X5xLlJUmBsJ8+oJ5v1dMyENf5yciRb1wNTUjeqeG8BQ3hFNIlxJfYGqLFRqSs+3+TAixYsHD1kVgAIsNBrPG8yrOZGrVABm9dsxqWgbJzC5y6ZJDb5yfFotUKP6HY+5lrWzxa7wMDVJ6vdl6g9nlM6w+pHAdF7CaB2bcQYDvitSFpdbCUoPYKhiBnPtUY8y+SsUAOb169EpaLMwB8mFQZgbjntw+dupKlDjuorHXMN0v9METFEPrvgPWQJ4nAvUuAI/Bp9y4Z4vsnEL62JTHXB6ihnM1UfdrHup+C/Wviu5mFxBmWkvfisFrQgzqTCY5hLp/8nUl1pq1Ie0V/CYqwnzjp1O9DYIU1mYqAEE+ir3pa9wceqY5EWLb20KpGYGolIUM5irjrhZ91IIIIUAUgjVXPurN5Nw74LsEJhuXDomWfFn1Ie0l/GYK99NQ/NPSwzBFIi9qRfZdwrTWxYdicyHCbZrXg3u56Jz92FLEGgYqDGDuZIwLx2Tgt9QAsCsLnwjCS3nn4W5ljB/PTpZ8anX/1z6LY+5/J003B4GpqzoEpGDCW0CIS4ixBWULD5jCLOP9OPvRA9lV6HtcSfu/DKn3iiNGcwV37vwH5zIJdRvGB0SVWbaJiMT0WJeFhLVmrmGZeOSUUkqUGM+lJbHXDYhFc0+IUymbF2I2gb+MUIaxd/PJ8i69+4aTOkrx0jt7cHVvnNGOVodKUTzL5j6rKXnDeay79y4iBO5aFQioSaZVpPXT+OOuZlItAdhSg3+1VtJuJg+9fqfS5e8lYhLx6egaR2YGsS+1KuEM1NNadlDanvKc8FUgBK+QO1u8aFTailafm1VU/88wFzH1Veio8kbpxUI/05Jqync5yYjTqPZ7EycVmGuJMwmbyTiQtZSM74u4DEXs3beqsLUIPaihqh1UZ5D6t2f1wczFKqkfjfW0/an3bjrYF4QqLoHjQnMZO4PH0jIwQUjT+MCRkddXRjmc5MRp3DbnBCYR1zKhWnyZvhjQz//G4+5aFwybt5RjJ5qZA7k5Cfw59DHcaEQNRmBqUmBag0o9bT1MQea78tW9qLteJsZNcxAQB7oVmHqPgcGbynA4M2UtAY1cKMF43cXKa8dxA7nnsEz9DHIpJ/Bmy0YtNWK/t+XoT8nPJLROF8FdS6IoZJ+42zhYYqU1KeUeppegbu+saH1wRx87ypX5qBnhmBq5iNUeR8kf+MjrVFJf/m3OnJRND/ynVk/Ik91AJ94ApguKU0JIC3qwkn6vWPn1oiwpDzoQfyRCLQr2we54X8yvRSJpcEdiZ6ZgvmvYlIsjpwB1qsvzwRqXXB6MgtT9qkP8XZUNvyTiwM4WcGACA5B136SMDVz+IAvS7k7KA6+UQz3LsgoTPndg4TYi3VzRKEfu7x+VNXz7keznzRMzbKYeTs8wWeX8u5bXoRFCrMLIXZlnRxiC2C1yw+n1CSD9rOAKcZyipNcG+QtosCUSDUDU+piZwvwOKNxrtOPVKa0WfvZwNSMwQT5P/KknkqUhqa+HkxpH2A09mY0vusI4ECZjwuleZBiPzuYmuVXA3u93DIx9ReqqV8XptTFLpYAhrMubmVdLDWR0nr2s4UpJrvaVC7921lP5c5IUn8C95lyx9SJIAfx5xVuP3KqIvxLrTr2s4apmfxV2zGm/ibW09EE2Nfix4wSP44r/8Y8umgMtV8ETM2KGKo7vQHsLwtEndJ69ouCKSar/vmyXxzM82mNMGNojTBjaI0wY2iNMGNmwD8BHUnMNXggPnwAAAAASUVORK5CYII=;" parent="1" vertex="1">
          <mxGeometry x="609.9999999999999" y="430" width="72.62" height="70" as="geometry" />
        </mxCell>
        <mxCell id="w646-Io4uiSVJ3ixSqgF-37" value="client A" style="text;html=1;align=center;verticalAlign=middle;whiteSpace=wrap;rounded=0;" parent="1" vertex="1">
          <mxGeometry x="184.69" y="450" width="68.5" height="20" as="geometry" />
        </mxCell>
        <mxCell id="w646-Io4uiSVJ3ixSqgF-38" value="Azure app Registration&lt;span style=&quot;background-color: initial;&quot;&gt;&amp;nbsp;&lt;/span&gt;&lt;div&gt;&lt;span style=&quot;background-color: initial;&quot;&gt;app Role one&lt;/span&gt;&lt;/div&gt;" style="text;html=1;align=left;verticalAlign=middle;whiteSpace=wrap;rounded=0;" parent="1" vertex="1">
          <mxGeometry x="610" y="400" width="155" height="25" as="geometry" />
        </mxCell>
        <mxCell id="w646-Io4uiSVJ3ixSqgF-39" value="" style="endArrow=classic;html=1;rounded=0;strokeWidth=2;dashed=1;dashPattern=8 8;entryX=0;entryY=0.75;entryDx=0;entryDy=0;exitX=1;exitY=0.5;exitDx=0;exitDy=0;" parent="1" source="w646-Io4uiSVJ3ixSqgF-15" target="w646-Io4uiSVJ3ixSqgF-35" edge="1">
          <mxGeometry width="50" height="50" relative="1" as="geometry">
            <mxPoint x="231" y="660" as="sourcePoint" />
            <mxPoint x="600" y="530" as="targetPoint" />
          </mxGeometry>
        </mxCell>
        <mxCell id="0MEWNDIGGcsioCRRxmuL-1" value="" style="shape=image;verticalLabelPosition=bottom;labelBackgroundColor=default;verticalAlign=top;aspect=fixed;imageAspect=0;image=data:image/png,iVBORw0KGgoAAAANSUhEUgAAAFMAAABQCAYAAABlJkmuAAAAAXNSR0IArs4c6QAAAARnQU1BAACxjwv8YQUAAAAJcEhZcwAAFxEAABcRAcom8z8AABH9SURBVHhe7ZwJeBRVtsd5+kZ9M87zuc04zjjj6Lzvvee4gKiIyiogIjuyuKKCooijgqKyCSqL7DsBEvZVQHwCCiKIbK7sZN+TTncnnfSWkLW7//M/1VWhjUW6qrvJN2rO9/2/m+7cOnXvr84591ZVoAkaLWbWCDOG1ggzhtYIM4bWCDOG1ggzhmYYZrUPyHDU4KSlGqcKzOkEj0kvrEFFdUDx5ToTUPxE4kt0PL8amUU++IPuUFUTQJHXjwK3DxaXD3lOH3JLfMihsh0+ZHLcGUU1SOMYUuw1SLbVINFao/hKYus84w86itIMwSyrCmDbyQqM2OLB0A1uvGhSz651YdLOUlg5WbFvcqoVP0PX6/cPp8GrXZi+u4wQFXfIIrBZe8owfkcpJlBvby/F2G1ejPnYi1EfefHmRx6M/NCD1zj+4Zs9eGWTBy9/4MEw+nppowfz9pUpFyFaMwRTIut5TrzPEiceWeYyrd487o2tXuSpAz6YUYVH+X3/BP3+4dRzsRPjtpWikhEpdsJSg0FrXMr4+sU70V9TQlADeJ5QPRJy3n7x/I7t6q/PKL6iMUMwv0jj5Jc78Rj1eATqu7QEbzE6tKv/VVYVBq50Eqh+/3Dqs6QE47d7a2FKur6wXiDp9w8nuQBTd5cqvqIxQzD3EaaAjHTyGsx8FebX2VV4ahX9RTj5WMKUefXj+N7/rIFg7k+vwhMrJMWDJzerhzlYqVsazG9yqvD0avrj5PX6h1Nvwnw7BOZJwnyeMAdE4E8yTi52g8E8wBoXE5hcZcW+y63GM6xxkUxepAtz3U8JJmvcAMKUkz+6rCTYagrzuc+SYrwRAvMIYQ7mCi+Lg1lf8rkXYY4jzIo6kdk/gX1D+xvw9QjbPoQ5paFgHsyswpOE2T9eHYwMSpOBzwrMre5amEfzqvGcArNOf4O+ey0uJkzPD2AOCYUZ0jfc50coGV+DwTykwuxHmHJys+rFwY4MgXmMm26ZfN8I/fVUYYam+RCmeSTjG0D1bkiYhwlTVl9t8jIAM60GU+5MxIL71iBMoz5CW4E5NgTmCcJ8jjAjGZ9IgbnLq/iKxgzBlH2hBlMbgBn15GBfD4Ept5FDN7jwcIT+etSBKZGpwdTrX5/6U3KxJzcYTHVfKKuy1CWzksm//uFZmKeshLlR7oz0+4dT97hijNkWEpm8OM+ujWx8/SiJ9EkNCXPgaqbD0mL0TTCvbnEOjPjQVQvzNGG+SJg9lzh0+4dTV/obvc39A5iDCDOS8T1MdV/swMSGgil3LANXBdP14Xjz6rrIgeEhMJNs1Rj2gYsR69DtH04P0d+oj8/CPE6Yz6xxKumq178+9aHkYk/c6VF8RWOGYModi0RmD0aSnNysZPKvhsBMtlfjpU0udCNMvf7h1IX+3qoD8+k1Mj79/vWpNyWR/l5DwZQFqN+yYnSYV4jOC4tMq+3sQjy/wYnsEg1mDV7YUIIO8wsJpsi02s0tZNlw1j4fPcqtVn9lfPrnr08PUO3mFLIGuxVf0ZghmKmFNZi+x4txO9yY8KnHtKS+xR0oRVFp8CFsHqFO+9zL6HQq6W9WL37gxJx9Z28n5eGv+Ht7h/75w2nMdjfWftdAj+DkSXbJGT8cZX4URyAHIbrK/fCpD7QFgjz0SC+qUUCYlRwnj/Nqn7T7OD45T53zGpUc56mI/mm7IZiNZswMwbS4fdiVXI6dlLRm9UlSOQ5lVaKsMhhK8q5GfEXqb0diORfFSkZ60J/NQ388x84U/f7h9CmPPZJXpfiKxgzB3JtWyQWI25gEh9KaVfclRXhtq6zmwZc2+zMq0ZffR+qv2+Iipc5VqgvQocxKrszcs+r0DSc5psfSIkz6rIFW813JFVz1CpXVt9MC82o9244hXL2zS4Iw96RWKN9H6u++WXa8vOXsar4vvQL301fHCPx1pNrMsSv71mjNEMzdKRXoEifbiEI8uMi82s2144WNJchRYe5Lr0RXRlek/mTyw7k10iLzy4zgxY7EX2eq/Ty7EunRmiGYnzOSusQxkmTAPLlZtSHM50Ngfsk078rU78Co0OsfTq0I85WQfeZ+wuzE7ztGMD45ri1hjt7uUnxFY4ZhPhhnZyrZ0WmhnYM217aaY8OQjcW1MA+wxnVdUqj4M+ojtL1vtg3/2FLyQ5j8vsMC4z60VtR6rg2jGhJmZ8JsxysoAzYrmfyzG4pra+ZBruzdCDNSf/fMUmGqm/b9mUGY7Xlx9PrXp/up+3ix39zmVHxFY4ZgyoIhMNvMs6H9Amq+ubblLCsGbXDUwpRtUvelXJjEn0Efoe3d9Ddsc3EIzEolwtpGML521L2zrQ0IM40FnjBbMR3a8uRm1YKTf2b9WZiHswkznqtyhP7ummnF0BCYBxiZHRbalIuj178+taHuJsyRH5covqIxgzDLWah5BecUMDqtpnXXzAI8va4IWSrMr7jh7hHPdJ0dmb87ZhRg6CbCVGumBvO+Ofr961NrqsWsArzeUDD3KjCtvIIWRlOBaTWfYcHAtWdhyt2LwGwxKzJ/zaZb8PwHjrORmcV95kIrWvLi6PUPVUueU4JC+3wvdcdMC0b8f0PBTC9HR8JsQZhy8nvUQRhtmxHmk4SZWRyE+W1eJXom2HEnJ2bUR2jblDCfE5haZKowWxDmuY65m+dqQWgdljLD5hUwW/Jxz5zg+W/n98M/akCYHQjzzln5aMkBmFXT6fl4fE0hslSY3+cT5jIbmnNCev3D6dZp+Xh2Y1EtzIOE2X4hARFY3b6STc15/lbzC/AYgY09Vo6X9nnx0KpC3Mnzi5rOyMerHxUrvqIxQzC/UGHK5CU1zerWqfl4jDAzi6sVf0cJszdhNuMk9fqH083v52MwYZZXBx+bKTAXMF2ZAUofApRWIEoE9uLi99pXZVhk82MVb3RWcOGeklaNwTvdaBNnxU2Tc/GPDx2Kr2jMGExuiu9fJOmVp0SnWd08NQ+PrLYjw6HCLKhC7+U23Bahv5vez8MzGwprYR7KrkA7RmYzRpj8vjnbZtNy0THBhqF7vZiVU4MV3JMvYybHk5lIPks75lgFerJkjPi4gSJzX0Y5YUp65TI680zrpvdz0X+VrRbmcWsV+qyw4ZYI/f3vlFw8td7+A5htF1iUiyNjbDnPgqc+cWFSSpUCUCJRgxgq+d1KQp2V68PclErYgsOL2AzXzNbz8/E/k3MYZbmmdePEHPRabkW6CvMEI7PnMiv+e1Jk/v76XjbLhu0sTKb5vXPyFZB9Njkw+mg5FtsDWMmUTmDA6YEMlQZ8IyVvL7wRPnQ3BPN4QSVe3lqEJ9YV4mmml1k9usaOsTtLUOAOLkBZJdUY+2kJHltr1+0fTlIyJu521r4DOmWtxIvbS/DKoVLMyfP9KKWNalFRsJWncckVgLq+GTZDMGXQdq8PBR5RDawhMvLZQohFZT7UqE/Gq9nKZ/k+tL9R33Kcg8eLlTOKDnsCWFzgQzyjcPk5UtqollBxhLqSvnZ5ADMP4A3B/Fe19MpgFK1gFEokGklpo1osItQ19HuwFFDfUtdrhmCmFlUj/huPogRFbrU19jnuKxc+PFUGZ3lwRGmsnUtr+5jzlfCtG+uSyvFxSQBrOVGJJJEekGi1lBKgcpE2s3QcLQugUnslqmOGYG45WYq/T8/B36fl4Ba2ZvW3KdnovZILkLrP/Oh0Kf5varZpfzdPy8ats3PR4TM3Xsn3YyEnu0xVAqUHJBqJz+VqtE+3VOGl0w4cd7OYnsMMwdx43IvrJ2bhL9RfJwV1g9oa+fz7CRnovNSiRLjY5hOluO69zFp/Rn1dz2Nu5EVouduNnjZgSCEwjRNVooetQK0LJFIJRPG30O7D8GQX2h3MRdv92fjOGQOYymSoGydzcpSZ9pp3MtElXmAGq/mWk178eWJmEFSdvvW1N/CYvzE67xWYdqCHFehHqMOsAUy0+BHH75YTQDRRuowQV1CL7X6MyShD928K0HxvJm7+PB3tDuTgiCsGMGXyousnmdfvxqfjgaX5SHUEYW5m2fgTo8ysv7+8l4EbpmYpMHsRXE/CFKDdqV55fgyjZtgCWFoYUCLLDFSBuFLZTgUwJbcCTxzjvfsXWWi6JxPNqNv2ZKB9LGBuIMw/cSKiP080r6veTkOnJXm1kbmJkXntu+b9XfduOq5/Pwv3sGZqMDUJ1G4FjNQcP0bm846Gm/ZlTH+t5p1LAlx2A/HsO9NSjWGJTtzHdL7t8ww0Y0TeripmMNcf8+IPnLwA+CMBmNXl49LQIQTmBye8+P07GYpPvf7n0rXvpOO6KZm4+zPXj2BqkijtXhDAU7l+jJVFilAlbSXy6oJcTohSFqbnV+OlRDc6HuY9PaNQolGDGHOY6455OPl0RX9gdJjVZWNT0X5xLlJUmBsJ8+oJ5v1dMyENf5yciRb1wNTUjeqeG8BQ3hFNIlxJfYGqLFRqSs+3+TAixYsHD1kVgAIsNBrPG8yrOZGrVABm9dsxqWgbJzC5y6ZJDb5yfFotUKP6HY+5lrWzxa7wMDVJ6vdl6g9nlM6w+pHAdF7CaB2bcQYDvitSFpdbCUoPYKhiBnPtUY8y+SsUAOb169EpaLMwB8mFQZgbjntw+dupKlDjuorHXMN0v9METFEPrvgPWQJ4nAvUuAI/Bp9y4Z4vsnEL62JTHXB6ihnM1UfdrHup+C/Wviu5mFxBmWkvfisFrQgzqTCY5hLp/8nUl1pq1Ie0V/CYqwnzjp1O9DYIU1mYqAEE+ir3pa9wceqY5EWLb20KpGYGolIUM5irjrhZ91IIIIUAUgjVXPurN5Nw74LsEJhuXDomWfFn1Ie0l/GYK99NQ/NPSwzBFIi9qRfZdwrTWxYdicyHCbZrXg3u56Jz92FLEGgYqDGDuZIwLx2Tgt9QAsCsLnwjCS3nn4W5ljB/PTpZ8anX/1z6LY+5/J003B4GpqzoEpGDCW0CIS4ixBWULD5jCLOP9OPvRA9lV6HtcSfu/DKn3iiNGcwV37vwH5zIJdRvGB0SVWbaJiMT0WJeFhLVmrmGZeOSUUkqUGM+lJbHXDYhFc0+IUymbF2I2gb+MUIaxd/PJ8i69+4aTOkrx0jt7cHVvnNGOVodKUTzL5j6rKXnDeay79y4iBO5aFQioSaZVpPXT+OOuZlItAdhSg3+1VtJuJg+9fqfS5e8lYhLx6egaR2YGsS+1KuEM1NNadlDanvKc8FUgBK+QO1u8aFTailafm1VU/88wFzH1Veio8kbpxUI/05Jqync5yYjTqPZ7EycVmGuJMwmbyTiQtZSM74u4DEXs3beqsLUIPaihqh1UZ5D6t2f1wczFKqkfjfW0/an3bjrYF4QqLoHjQnMZO4PH0jIwQUjT+MCRkddXRjmc5MRp3DbnBCYR1zKhWnyZvhjQz//G4+5aFwybt5RjJ5qZA7k5Cfw59DHcaEQNRmBqUmBag0o9bT1MQea78tW9qLteJsZNcxAQB7oVmHqPgcGbynA4M2UtAY1cKMF43cXKa8dxA7nnsEz9DHIpJ/Bmy0YtNWK/t+XoT8nPJLROF8FdS6IoZJ+42zhYYqU1KeUeppegbu+saH1wRx87ypX5qBnhmBq5iNUeR8kf+MjrVFJf/m3OnJRND/ynVk/Ik91AJ94ApguKU0JIC3qwkn6vWPn1oiwpDzoQfyRCLQr2we54X8yvRSJpcEdiZ6ZgvmvYlIsjpwB1qsvzwRqXXB6MgtT9qkP8XZUNvyTiwM4WcGACA5B136SMDVz+IAvS7k7KA6+UQz3LsgoTPndg4TYi3VzRKEfu7x+VNXz7keznzRMzbKYeTs8wWeX8u5bXoRFCrMLIXZlnRxiC2C1yw+n1CSD9rOAKcZyipNcG+QtosCUSDUDU+piZwvwOKNxrtOPVKa0WfvZwNSMwQT5P/KknkqUhqa+HkxpH2A09mY0vusI4ECZjwuleZBiPzuYmuVXA3u93DIx9ReqqV8XptTFLpYAhrMubmVdLDWR0nr2s4UpJrvaVC7921lP5c5IUn8C95lyx9SJIAfx5xVuP3KqIvxLrTr2s4apmfxV2zGm/ibW09EE2Nfix4wSP44r/8Y8umgMtV8ETM2KGKo7vQHsLwtEndJ69ouCKSar/vmyXxzM82mNMGNojTBjaI0wY2iNMGNmwD8BHUnMNXggPnwAAAAASUVORK5CYII=;" vertex="1" parent="1">
          <mxGeometry x="579.9999999999999" y="290" width="72.62" height="70" as="geometry" />
        </mxCell>
        <mxCell id="0MEWNDIGGcsioCRRxmuL-2" value="Azure app Registration&lt;span style=&quot;background-color: initial;&quot;&gt;&amp;nbsp;&lt;/span&gt;&lt;div&gt;&lt;span style=&quot;background-color: initial;&quot;&gt;app Role two&lt;/span&gt;&lt;/div&gt;" style="text;html=1;align=left;verticalAlign=middle;whiteSpace=wrap;rounded=0;" vertex="1" parent="1">
          <mxGeometry x="580" y="255" width="155" height="25" as="geometry" />
        </mxCell>
        <mxCell id="0MEWNDIGGcsioCRRxmuL-3" value="" style="shape=image;verticalLabelPosition=bottom;labelBackgroundColor=default;verticalAlign=top;aspect=fixed;imageAspect=0;image=data:image/png,iVBORw0KGgoAAAANSUhEUgAAAFMAAABQCAYAAABlJkmuAAAAAXNSR0IArs4c6QAAAARnQU1BAACxjwv8YQUAAAAJcEhZcwAAFxEAABcRAcom8z8AABH9SURBVHhe7ZwJeBRVtsd5+kZ9M87zuc04zjjj6Lzvvee4gKiIyiogIjuyuKKCooijgqKyCSqL7DsBEvZVQHwCCiKIbK7sZN+TTncnnfSWkLW7//M/1VWhjUW6qrvJN2rO9/2/m+7cOnXvr84591ZVoAkaLWbWCDOG1ggzhtYIM4bWCDOG1ggzhmYYZrUPyHDU4KSlGqcKzOkEj0kvrEFFdUDx5ToTUPxE4kt0PL8amUU++IPuUFUTQJHXjwK3DxaXD3lOH3JLfMihsh0+ZHLcGUU1SOMYUuw1SLbVINFao/hKYus84w86itIMwSyrCmDbyQqM2OLB0A1uvGhSz651YdLOUlg5WbFvcqoVP0PX6/cPp8GrXZi+u4wQFXfIIrBZe8owfkcpJlBvby/F2G1ejPnYi1EfefHmRx6M/NCD1zj+4Zs9eGWTBy9/4MEw+nppowfz9pUpFyFaMwRTIut5TrzPEiceWeYyrd487o2tXuSpAz6YUYVH+X3/BP3+4dRzsRPjtpWikhEpdsJSg0FrXMr4+sU70V9TQlADeJ5QPRJy3n7x/I7t6q/PKL6iMUMwv0jj5Jc78Rj1eATqu7QEbzE6tKv/VVYVBq50Eqh+/3Dqs6QE47d7a2FKur6wXiDp9w8nuQBTd5cqvqIxQzD3EaaAjHTyGsx8FebX2VV4ahX9RTj5WMKUefXj+N7/rIFg7k+vwhMrJMWDJzerhzlYqVsazG9yqvD0avrj5PX6h1Nvwnw7BOZJwnyeMAdE4E8yTi52g8E8wBoXE5hcZcW+y63GM6xxkUxepAtz3U8JJmvcAMKUkz+6rCTYagrzuc+SYrwRAvMIYQ7mCi+Lg1lf8rkXYY4jzIo6kdk/gX1D+xvw9QjbPoQ5paFgHsyswpOE2T9eHYwMSpOBzwrMre5amEfzqvGcArNOf4O+ey0uJkzPD2AOCYUZ0jfc50coGV+DwTykwuxHmHJys+rFwY4MgXmMm26ZfN8I/fVUYYam+RCmeSTjG0D1bkiYhwlTVl9t8jIAM60GU+5MxIL71iBMoz5CW4E5NgTmCcJ8jjAjGZ9IgbnLq/iKxgzBlH2hBlMbgBn15GBfD4Ept5FDN7jwcIT+etSBKZGpwdTrX5/6U3KxJzcYTHVfKKuy1CWzksm//uFZmKeshLlR7oz0+4dT97hijNkWEpm8OM+ujWx8/SiJ9EkNCXPgaqbD0mL0TTCvbnEOjPjQVQvzNGG+SJg9lzh0+4dTV/obvc39A5iDCDOS8T1MdV/swMSGgil3LANXBdP14Xjz6rrIgeEhMJNs1Rj2gYsR69DtH04P0d+oj8/CPE6Yz6xxKumq178+9aHkYk/c6VF8RWOGYModi0RmD0aSnNysZPKvhsBMtlfjpU0udCNMvf7h1IX+3qoD8+k1Mj79/vWpNyWR/l5DwZQFqN+yYnSYV4jOC4tMq+3sQjy/wYnsEg1mDV7YUIIO8wsJpsi02s0tZNlw1j4fPcqtVn9lfPrnr08PUO3mFLIGuxVf0ZghmKmFNZi+x4txO9yY8KnHtKS+xR0oRVFp8CFsHqFO+9zL6HQq6W9WL37gxJx9Z28n5eGv+Ht7h/75w2nMdjfWftdAj+DkSXbJGT8cZX4URyAHIbrK/fCpD7QFgjz0SC+qUUCYlRwnj/Nqn7T7OD45T53zGpUc56mI/mm7IZiNZswMwbS4fdiVXI6dlLRm9UlSOQ5lVaKsMhhK8q5GfEXqb0diORfFSkZ60J/NQ388x84U/f7h9CmPPZJXpfiKxgzB3JtWyQWI25gEh9KaVfclRXhtq6zmwZc2+zMq0ZffR+qv2+Iipc5VqgvQocxKrszcs+r0DSc5psfSIkz6rIFW813JFVz1CpXVt9MC82o9244hXL2zS4Iw96RWKN9H6u++WXa8vOXsar4vvQL301fHCPx1pNrMsSv71mjNEMzdKRXoEifbiEI8uMi82s2144WNJchRYe5Lr0RXRlek/mTyw7k10iLzy4zgxY7EX2eq/Ty7EunRmiGYnzOSusQxkmTAPLlZtSHM50Ngfsk078rU78Co0OsfTq0I85WQfeZ+wuzE7ztGMD45ri1hjt7uUnxFY4ZhPhhnZyrZ0WmhnYM217aaY8OQjcW1MA+wxnVdUqj4M+ojtL1vtg3/2FLyQ5j8vsMC4z60VtR6rg2jGhJmZ8JsxysoAzYrmfyzG4pra+ZBruzdCDNSf/fMUmGqm/b9mUGY7Xlx9PrXp/up+3ix39zmVHxFY4ZgyoIhMNvMs6H9Amq+ubblLCsGbXDUwpRtUvelXJjEn0Efoe3d9Ddsc3EIzEolwtpGML521L2zrQ0IM40FnjBbMR3a8uRm1YKTf2b9WZiHswkznqtyhP7ummnF0BCYBxiZHRbalIuj178+taHuJsyRH5covqIxgzDLWah5BecUMDqtpnXXzAI8va4IWSrMr7jh7hHPdJ0dmb87ZhRg6CbCVGumBvO+Ofr961NrqsWsArzeUDD3KjCtvIIWRlOBaTWfYcHAtWdhyt2LwGwxKzJ/zaZb8PwHjrORmcV95kIrWvLi6PUPVUueU4JC+3wvdcdMC0b8f0PBTC9HR8JsQZhy8nvUQRhtmxHmk4SZWRyE+W1eJXom2HEnJ2bUR2jblDCfE5haZKowWxDmuY65m+dqQWgdljLD5hUwW/Jxz5zg+W/n98M/akCYHQjzzln5aMkBmFXT6fl4fE0hslSY3+cT5jIbmnNCev3D6dZp+Xh2Y1EtzIOE2X4hARFY3b6STc15/lbzC/AYgY09Vo6X9nnx0KpC3Mnzi5rOyMerHxUrvqIxQzC/UGHK5CU1zerWqfl4jDAzi6sVf0cJszdhNuMk9fqH083v52MwYZZXBx+bKTAXMF2ZAUofApRWIEoE9uLi99pXZVhk82MVb3RWcOGeklaNwTvdaBNnxU2Tc/GPDx2Kr2jMGExuiu9fJOmVp0SnWd08NQ+PrLYjw6HCLKhC7+U23Bahv5vez8MzGwprYR7KrkA7RmYzRpj8vjnbZtNy0THBhqF7vZiVU4MV3JMvYybHk5lIPks75lgFerJkjPi4gSJzX0Y5YUp65TI680zrpvdz0X+VrRbmcWsV+qyw4ZYI/f3vlFw8td7+A5htF1iUiyNjbDnPgqc+cWFSSpUCUCJRgxgq+d1KQp2V68PclErYgsOL2AzXzNbz8/E/k3MYZbmmdePEHPRabkW6CvMEI7PnMiv+e1Jk/v76XjbLhu0sTKb5vXPyFZB9Njkw+mg5FtsDWMmUTmDA6YEMlQZ8IyVvL7wRPnQ3BPN4QSVe3lqEJ9YV4mmml1k9usaOsTtLUOAOLkBZJdUY+2kJHltr1+0fTlIyJu521r4DOmWtxIvbS/DKoVLMyfP9KKWNalFRsJWncckVgLq+GTZDMGXQdq8PBR5RDawhMvLZQohFZT7UqE/Gq9nKZ/k+tL9R33Kcg8eLlTOKDnsCWFzgQzyjcPk5UtqollBxhLqSvnZ5ADMP4A3B/Fe19MpgFK1gFEokGklpo1osItQ19HuwFFDfUtdrhmCmFlUj/huPogRFbrU19jnuKxc+PFUGZ3lwRGmsnUtr+5jzlfCtG+uSyvFxSQBrOVGJJJEekGi1lBKgcpE2s3QcLQugUnslqmOGYG45WYq/T8/B36fl4Ba2ZvW3KdnovZILkLrP/Oh0Kf5varZpfzdPy8ats3PR4TM3Xsn3YyEnu0xVAqUHJBqJz+VqtE+3VOGl0w4cd7OYnsMMwdx43IvrJ2bhL9RfJwV1g9oa+fz7CRnovNSiRLjY5hOluO69zFp/Rn1dz2Nu5EVouduNnjZgSCEwjRNVooetQK0LJFIJRPG30O7D8GQX2h3MRdv92fjOGQOYymSoGydzcpSZ9pp3MtElXmAGq/mWk178eWJmEFSdvvW1N/CYvzE67xWYdqCHFehHqMOsAUy0+BHH75YTQDRRuowQV1CL7X6MyShD928K0HxvJm7+PB3tDuTgiCsGMGXyousnmdfvxqfjgaX5SHUEYW5m2fgTo8ysv7+8l4EbpmYpMHsRXE/CFKDdqV55fgyjZtgCWFoYUCLLDFSBuFLZTgUwJbcCTxzjvfsXWWi6JxPNqNv2ZKB9LGBuIMw/cSKiP080r6veTkOnJXm1kbmJkXntu+b9XfduOq5/Pwv3sGZqMDUJ1G4FjNQcP0bm846Gm/ZlTH+t5p1LAlx2A/HsO9NSjWGJTtzHdL7t8ww0Y0TeripmMNcf8+IPnLwA+CMBmNXl49LQIQTmBye8+P07GYpPvf7n0rXvpOO6KZm4+zPXj2BqkijtXhDAU7l+jJVFilAlbSXy6oJcTohSFqbnV+OlRDc6HuY9PaNQolGDGHOY6455OPl0RX9gdJjVZWNT0X5xLlJUmBsJ8+oJ5v1dMyENf5yciRb1wNTUjeqeG8BQ3hFNIlxJfYGqLFRqSs+3+TAixYsHD1kVgAIsNBrPG8yrOZGrVABm9dsxqWgbJzC5y6ZJDb5yfFotUKP6HY+5lrWzxa7wMDVJ6vdl6g9nlM6w+pHAdF7CaB2bcQYDvitSFpdbCUoPYKhiBnPtUY8y+SsUAOb169EpaLMwB8mFQZgbjntw+dupKlDjuorHXMN0v9METFEPrvgPWQJ4nAvUuAI/Bp9y4Z4vsnEL62JTHXB6ihnM1UfdrHup+C/Wviu5mFxBmWkvfisFrQgzqTCY5hLp/8nUl1pq1Ie0V/CYqwnzjp1O9DYIU1mYqAEE+ir3pa9wceqY5EWLb20KpGYGolIUM5irjrhZ91IIIIUAUgjVXPurN5Nw74LsEJhuXDomWfFn1Ie0l/GYK99NQ/NPSwzBFIi9qRfZdwrTWxYdicyHCbZrXg3u56Jz92FLEGgYqDGDuZIwLx2Tgt9QAsCsLnwjCS3nn4W5ljB/PTpZ8anX/1z6LY+5/J003B4GpqzoEpGDCW0CIS4ixBWULD5jCLOP9OPvRA9lV6HtcSfu/DKn3iiNGcwV37vwH5zIJdRvGB0SVWbaJiMT0WJeFhLVmrmGZeOSUUkqUGM+lJbHXDYhFc0+IUymbF2I2gb+MUIaxd/PJ8i69+4aTOkrx0jt7cHVvnNGOVodKUTzL5j6rKXnDeay79y4iBO5aFQioSaZVpPXT+OOuZlItAdhSg3+1VtJuJg+9fqfS5e8lYhLx6egaR2YGsS+1KuEM1NNadlDanvKc8FUgBK+QO1u8aFTailafm1VU/88wFzH1Veio8kbpxUI/05Jqync5yYjTqPZ7EycVmGuJMwmbyTiQtZSM74u4DEXs3beqsLUIPaihqh1UZ5D6t2f1wczFKqkfjfW0/an3bjrYF4QqLoHjQnMZO4PH0jIwQUjT+MCRkddXRjmc5MRp3DbnBCYR1zKhWnyZvhjQz//G4+5aFwybt5RjJ5qZA7k5Cfw59DHcaEQNRmBqUmBag0o9bT1MQea78tW9qLteJsZNcxAQB7oVmHqPgcGbynA4M2UtAY1cKMF43cXKa8dxA7nnsEz9DHIpJ/Bmy0YtNWK/t+XoT8nPJLROF8FdS6IoZJ+42zhYYqU1KeUeppegbu+saH1wRx87ypX5qBnhmBq5iNUeR8kf+MjrVFJf/m3OnJRND/ynVk/Ik91AJ94ApguKU0JIC3qwkn6vWPn1oiwpDzoQfyRCLQr2we54X8yvRSJpcEdiZ6ZgvmvYlIsjpwB1qsvzwRqXXB6MgtT9qkP8XZUNvyTiwM4WcGACA5B136SMDVz+IAvS7k7KA6+UQz3LsgoTPndg4TYi3VzRKEfu7x+VNXz7keznzRMzbKYeTs8wWeX8u5bXoRFCrMLIXZlnRxiC2C1yw+n1CSD9rOAKcZyipNcG+QtosCUSDUDU+piZwvwOKNxrtOPVKa0WfvZwNSMwQT5P/KknkqUhqa+HkxpH2A09mY0vusI4ECZjwuleZBiPzuYmuVXA3u93DIx9ReqqV8XptTFLpYAhrMubmVdLDWR0nr2s4UpJrvaVC7921lP5c5IUn8C95lyx9SJIAfx5xVuP3KqIvxLrTr2s4apmfxV2zGm/ibW09EE2Nfix4wSP44r/8Y8umgMtV8ETM2KGKo7vQHsLwtEndJ69ouCKSar/vmyXxzM82mNMGNojTBjaI0wY2iNMGNmwD8BHUnMNXggPnwAAAAASUVORK5CYII=;" vertex="1" parent="1">
          <mxGeometry x="609.9999999999999" y="160" width="72.62" height="70" as="geometry" />
        </mxCell>
        <mxCell id="0MEWNDIGGcsioCRRxmuL-4" value="Azure app Registration&lt;span style=&quot;background-color: initial;&quot;&gt;&amp;nbsp;&lt;/span&gt;&lt;div&gt;&lt;span style=&quot;background-color: initial;&quot;&gt;app Role three&lt;/span&gt;&lt;/div&gt;" style="text;html=1;align=left;verticalAlign=middle;whiteSpace=wrap;rounded=0;" vertex="1" parent="1">
          <mxGeometry x="610" y="120" width="155" height="25" as="geometry" />
        </mxCell>
        <mxCell id="0MEWNDIGGcsioCRRxmuL-5" value="client B" style="text;html=1;align=center;verticalAlign=middle;whiteSpace=wrap;rounded=0;" vertex="1" parent="1">
          <mxGeometry x="269.25" y="300" width="69.69" height="20" as="geometry" />
        </mxCell>
        <mxCell id="0MEWNDIGGcsioCRRxmuL-6" value="" style="shape=image;verticalLabelPosition=bottom;labelBackgroundColor=default;verticalAlign=top;aspect=fixed;imageAspect=0;image=data:image/png,iVBORw0KGgoAAAANSUhEUgAAAFMAAABQCAYAAABlJkmuAAAAAXNSR0IArs4c6QAAAARnQU1BAACxjwv8YQUAAAAJcEhZcwAAFxEAABcRAcom8z8AABH9SURBVHhe7ZwJeBRVtsd5+kZ9M87zuc04zjjj6Lzvvee4gKiIyiogIjuyuKKCooijgqKyCSqL7DsBEvZVQHwCCiKIbK7sZN+TTncnnfSWkLW7//M/1VWhjUW6qrvJN2rO9/2/m+7cOnXvr84591ZVoAkaLWbWCDOG1ggzhtYIM4bWCDOG1ggzhmYYZrUPyHDU4KSlGqcKzOkEj0kvrEFFdUDx5ToTUPxE4kt0PL8amUU++IPuUFUTQJHXjwK3DxaXD3lOH3JLfMihsh0+ZHLcGUU1SOMYUuw1SLbVINFao/hKYus84w86itIMwSyrCmDbyQqM2OLB0A1uvGhSz651YdLOUlg5WbFvcqoVP0PX6/cPp8GrXZi+u4wQFXfIIrBZe8owfkcpJlBvby/F2G1ejPnYi1EfefHmRx6M/NCD1zj+4Zs9eGWTBy9/4MEw+nppowfz9pUpFyFaMwRTIut5TrzPEiceWeYyrd487o2tXuSpAz6YUYVH+X3/BP3+4dRzsRPjtpWikhEpdsJSg0FrXMr4+sU70V9TQlADeJ5QPRJy3n7x/I7t6q/PKL6iMUMwv0jj5Jc78Rj1eATqu7QEbzE6tKv/VVYVBq50Eqh+/3Dqs6QE47d7a2FKur6wXiDp9w8nuQBTd5cqvqIxQzD3EaaAjHTyGsx8FebX2VV4ahX9RTj5WMKUefXj+N7/rIFg7k+vwhMrJMWDJzerhzlYqVsazG9yqvD0avrj5PX6h1Nvwnw7BOZJwnyeMAdE4E8yTi52g8E8wBoXE5hcZcW+y63GM6xxkUxepAtz3U8JJmvcAMKUkz+6rCTYagrzuc+SYrwRAvMIYQ7mCi+Lg1lf8rkXYY4jzIo6kdk/gX1D+xvw9QjbPoQ5paFgHsyswpOE2T9eHYwMSpOBzwrMre5amEfzqvGcArNOf4O+ey0uJkzPD2AOCYUZ0jfc50coGV+DwTykwuxHmHJys+rFwY4MgXmMm26ZfN8I/fVUYYam+RCmeSTjG0D1bkiYhwlTVl9t8jIAM60GU+5MxIL71iBMoz5CW4E5NgTmCcJ8jjAjGZ9IgbnLq/iKxgzBlH2hBlMbgBn15GBfD4Ept5FDN7jwcIT+etSBKZGpwdTrX5/6U3KxJzcYTHVfKKuy1CWzksm//uFZmKeshLlR7oz0+4dT97hijNkWEpm8OM+ujWx8/SiJ9EkNCXPgaqbD0mL0TTCvbnEOjPjQVQvzNGG+SJg9lzh0+4dTV/obvc39A5iDCDOS8T1MdV/swMSGgil3LANXBdP14Xjz6rrIgeEhMJNs1Rj2gYsR69DtH04P0d+oj8/CPE6Yz6xxKumq178+9aHkYk/c6VF8RWOGYModi0RmD0aSnNysZPKvhsBMtlfjpU0udCNMvf7h1IX+3qoD8+k1Mj79/vWpNyWR/l5DwZQFqN+yYnSYV4jOC4tMq+3sQjy/wYnsEg1mDV7YUIIO8wsJpsi02s0tZNlw1j4fPcqtVn9lfPrnr08PUO3mFLIGuxVf0ZghmKmFNZi+x4txO9yY8KnHtKS+xR0oRVFp8CFsHqFO+9zL6HQq6W9WL37gxJx9Z28n5eGv+Ht7h/75w2nMdjfWftdAj+DkSXbJGT8cZX4URyAHIbrK/fCpD7QFgjz0SC+qUUCYlRwnj/Nqn7T7OD45T53zGpUc56mI/mm7IZiNZswMwbS4fdiVXI6dlLRm9UlSOQ5lVaKsMhhK8q5GfEXqb0diORfFSkZ60J/NQ388x84U/f7h9CmPPZJXpfiKxgzB3JtWyQWI25gEh9KaVfclRXhtq6zmwZc2+zMq0ZffR+qv2+Iipc5VqgvQocxKrszcs+r0DSc5psfSIkz6rIFW813JFVz1CpXVt9MC82o9244hXL2zS4Iw96RWKN9H6u++WXa8vOXsar4vvQL301fHCPx1pNrMsSv71mjNEMzdKRXoEifbiEI8uMi82s2144WNJchRYe5Lr0RXRlek/mTyw7k10iLzy4zgxY7EX2eq/Ty7EunRmiGYnzOSusQxkmTAPLlZtSHM50Ngfsk078rU78Co0OsfTq0I85WQfeZ+wuzE7ztGMD45ri1hjt7uUnxFY4ZhPhhnZyrZ0WmhnYM217aaY8OQjcW1MA+wxnVdUqj4M+ojtL1vtg3/2FLyQ5j8vsMC4z60VtR6rg2jGhJmZ8JsxysoAzYrmfyzG4pra+ZBruzdCDNSf/fMUmGqm/b9mUGY7Xlx9PrXp/up+3ix39zmVHxFY4ZgyoIhMNvMs6H9Amq+ubblLCsGbXDUwpRtUvelXJjEn0Efoe3d9Ddsc3EIzEolwtpGML521L2zrQ0IM40FnjBbMR3a8uRm1YKTf2b9WZiHswkznqtyhP7ummnF0BCYBxiZHRbalIuj178+taHuJsyRH5covqIxgzDLWah5BecUMDqtpnXXzAI8va4IWSrMr7jh7hHPdJ0dmb87ZhRg6CbCVGumBvO+Ofr961NrqsWsArzeUDD3KjCtvIIWRlOBaTWfYcHAtWdhyt2LwGwxKzJ/zaZb8PwHjrORmcV95kIrWvLi6PUPVUueU4JC+3wvdcdMC0b8f0PBTC9HR8JsQZhy8nvUQRhtmxHmk4SZWRyE+W1eJXom2HEnJ2bUR2jblDCfE5haZKowWxDmuY65m+dqQWgdljLD5hUwW/Jxz5zg+W/n98M/akCYHQjzzln5aMkBmFXT6fl4fE0hslSY3+cT5jIbmnNCev3D6dZp+Xh2Y1EtzIOE2X4hARFY3b6STc15/lbzC/AYgY09Vo6X9nnx0KpC3Mnzi5rOyMerHxUrvqIxQzC/UGHK5CU1zerWqfl4jDAzi6sVf0cJszdhNuMk9fqH083v52MwYZZXBx+bKTAXMF2ZAUofApRWIEoE9uLi99pXZVhk82MVb3RWcOGeklaNwTvdaBNnxU2Tc/GPDx2Kr2jMGExuiu9fJOmVp0SnWd08NQ+PrLYjw6HCLKhC7+U23Bahv5vez8MzGwprYR7KrkA7RmYzRpj8vjnbZtNy0THBhqF7vZiVU4MV3JMvYybHk5lIPks75lgFerJkjPi4gSJzX0Y5YUp65TI680zrpvdz0X+VrRbmcWsV+qyw4ZYI/f3vlFw8td7+A5htF1iUiyNjbDnPgqc+cWFSSpUCUCJRgxgq+d1KQp2V68PclErYgsOL2AzXzNbz8/E/k3MYZbmmdePEHPRabkW6CvMEI7PnMiv+e1Jk/v76XjbLhu0sTKb5vXPyFZB9Njkw+mg5FtsDWMmUTmDA6YEMlQZ8IyVvL7wRPnQ3BPN4QSVe3lqEJ9YV4mmml1k9usaOsTtLUOAOLkBZJdUY+2kJHltr1+0fTlIyJu521r4DOmWtxIvbS/DKoVLMyfP9KKWNalFRsJWncckVgLq+GTZDMGXQdq8PBR5RDawhMvLZQohFZT7UqE/Gq9nKZ/k+tL9R33Kcg8eLlTOKDnsCWFzgQzyjcPk5UtqollBxhLqSvnZ5ADMP4A3B/Fe19MpgFK1gFEokGklpo1osItQ19HuwFFDfUtdrhmCmFlUj/huPogRFbrU19jnuKxc+PFUGZ3lwRGmsnUtr+5jzlfCtG+uSyvFxSQBrOVGJJJEekGi1lBKgcpE2s3QcLQugUnslqmOGYG45WYq/T8/B36fl4Ba2ZvW3KdnovZILkLrP/Oh0Kf5varZpfzdPy8ats3PR4TM3Xsn3YyEnu0xVAqUHJBqJz+VqtE+3VOGl0w4cd7OYnsMMwdx43IvrJ2bhL9RfJwV1g9oa+fz7CRnovNSiRLjY5hOluO69zFp/Rn1dz2Nu5EVouduNnjZgSCEwjRNVooetQK0LJFIJRPG30O7D8GQX2h3MRdv92fjOGQOYymSoGydzcpSZ9pp3MtElXmAGq/mWk178eWJmEFSdvvW1N/CYvzE67xWYdqCHFehHqMOsAUy0+BHH75YTQDRRuowQV1CL7X6MyShD928K0HxvJm7+PB3tDuTgiCsGMGXyousnmdfvxqfjgaX5SHUEYW5m2fgTo8ysv7+8l4EbpmYpMHsRXE/CFKDdqV55fgyjZtgCWFoYUCLLDFSBuFLZTgUwJbcCTxzjvfsXWWi6JxPNqNv2ZKB9LGBuIMw/cSKiP080r6veTkOnJXm1kbmJkXntu+b9XfduOq5/Pwv3sGZqMDUJ1G4FjNQcP0bm846Gm/ZlTH+t5p1LAlx2A/HsO9NSjWGJTtzHdL7t8ww0Y0TeripmMNcf8+IPnLwA+CMBmNXl49LQIQTmBye8+P07GYpPvf7n0rXvpOO6KZm4+zPXj2BqkijtXhDAU7l+jJVFilAlbSXy6oJcTohSFqbnV+OlRDc6HuY9PaNQolGDGHOY6455OPl0RX9gdJjVZWNT0X5xLlJUmBsJ8+oJ5v1dMyENf5yciRb1wNTUjeqeG8BQ3hFNIlxJfYGqLFRqSs+3+TAixYsHD1kVgAIsNBrPG8yrOZGrVABm9dsxqWgbJzC5y6ZJDb5yfFotUKP6HY+5lrWzxa7wMDVJ6vdl6g9nlM6w+pHAdF7CaB2bcQYDvitSFpdbCUoPYKhiBnPtUY8y+SsUAOb169EpaLMwB8mFQZgbjntw+dupKlDjuorHXMN0v9METFEPrvgPWQJ4nAvUuAI/Bp9y4Z4vsnEL62JTHXB6ihnM1UfdrHup+C/Wviu5mFxBmWkvfisFrQgzqTCY5hLp/8nUl1pq1Ie0V/CYqwnzjp1O9DYIU1mYqAEE+ir3pa9wceqY5EWLb20KpGYGolIUM5irjrhZ91IIIIUAUgjVXPurN5Nw74LsEJhuXDomWfFn1Ie0l/GYK99NQ/NPSwzBFIi9qRfZdwrTWxYdicyHCbZrXg3u56Jz92FLEGgYqDGDuZIwLx2Tgt9QAsCsLnwjCS3nn4W5ljB/PTpZ8anX/1z6LY+5/J003B4GpqzoEpGDCW0CIS4ixBWULD5jCLOP9OPvRA9lV6HtcSfu/DKn3iiNGcwV37vwH5zIJdRvGB0SVWbaJiMT0WJeFhLVmrmGZeOSUUkqUGM+lJbHXDYhFc0+IUymbF2I2gb+MUIaxd/PJ8i69+4aTOkrx0jt7cHVvnNGOVodKUTzL5j6rKXnDeay79y4iBO5aFQioSaZVpPXT+OOuZlItAdhSg3+1VtJuJg+9fqfS5e8lYhLx6egaR2YGsS+1KuEM1NNadlDanvKc8FUgBK+QO1u8aFTailafm1VU/88wFzH1Veio8kbpxUI/05Jqync5yYjTqPZ7EycVmGuJMwmbyTiQtZSM74u4DEXs3beqsLUIPaihqh1UZ5D6t2f1wczFKqkfjfW0/an3bjrYF4QqLoHjQnMZO4PH0jIwQUjT+MCRkddXRjmc5MRp3DbnBCYR1zKhWnyZvhjQz//G4+5aFwybt5RjJ5qZA7k5Cfw59DHcaEQNRmBqUmBag0o9bT1MQea78tW9qLteJsZNcxAQB7oVmHqPgcGbynA4M2UtAY1cKMF43cXKa8dxA7nnsEz9DHIpJ/Bmy0YtNWK/t+XoT8nPJLROF8FdS6IoZJ+42zhYYqU1KeUeppegbu+saH1wRx87ypX5qBnhmBq5iNUeR8kf+MjrVFJf/m3OnJRND/ynVk/Ik91AJ94ApguKU0JIC3qwkn6vWPn1oiwpDzoQfyRCLQr2we54X8yvRSJpcEdiZ6ZgvmvYlIsjpwB1qsvzwRqXXB6MgtT9qkP8XZUNvyTiwM4WcGACA5B136SMDVz+IAvS7k7KA6+UQz3LsgoTPndg4TYi3VzRKEfu7x+VNXz7keznzRMzbKYeTs8wWeX8u5bXoRFCrMLIXZlnRxiC2C1yw+n1CSD9rOAKcZyipNcG+QtosCUSDUDU+piZwvwOKNxrtOPVKa0WfvZwNSMwQT5P/KknkqUhqa+HkxpH2A09mY0vusI4ECZjwuleZBiPzuYmuVXA3u93DIx9ReqqV8XptTFLpYAhrMubmVdLDWR0nr2s4UpJrvaVC7921lP5c5IUn8C95lyx9SJIAfx5xVuP3KqIvxLrTr2s4apmfxV2zGm/ibW09EE2Nfix4wSP44r/8Y8umgMtV8ETM2KGKo7vQHsLwtEndJ69ouCKSar/vmyXxzM82mNMGNojTBjaI0wY2iNMGNmwD8BHUnMNXggPnwAAAAASUVORK5CYII=;" vertex="1" parent="1">
          <mxGeometry x="269.25" y="330" width="72.62" height="70" as="geometry" />
        </mxCell>
        <mxCell id="0MEWNDIGGcsioCRRxmuL-12" value="client C" style="text;html=1;align=center;verticalAlign=middle;whiteSpace=wrap;rounded=0;" vertex="1" parent="1">
          <mxGeometry x="172.75" y="100" width="96.5" height="20" as="geometry" />
        </mxCell>
        <mxCell id="0MEWNDIGGcsioCRRxmuL-13" value="" style="shape=image;verticalLabelPosition=bottom;labelBackgroundColor=default;verticalAlign=top;aspect=fixed;imageAspect=0;image=data:image/png,iVBORw0KGgoAAAANSUhEUgAAAFMAAABQCAYAAABlJkmuAAAAAXNSR0IArs4c6QAAAARnQU1BAACxjwv8YQUAAAAJcEhZcwAAFxEAABcRAcom8z8AABH9SURBVHhe7ZwJeBRVtsd5+kZ9M87zuc04zjjj6Lzvvee4gKiIyiogIjuyuKKCooijgqKyCSqL7DsBEvZVQHwCCiKIbK7sZN+TTncnnfSWkLW7//M/1VWhjUW6qrvJN2rO9/2/m+7cOnXvr84591ZVoAkaLWbWCDOG1ggzhtYIM4bWCDOG1ggzhmYYZrUPyHDU4KSlGqcKzOkEj0kvrEFFdUDx5ToTUPxE4kt0PL8amUU++IPuUFUTQJHXjwK3DxaXD3lOH3JLfMihsh0+ZHLcGUU1SOMYUuw1SLbVINFao/hKYus84w86itIMwSyrCmDbyQqM2OLB0A1uvGhSz651YdLOUlg5WbFvcqoVP0PX6/cPp8GrXZi+u4wQFXfIIrBZe8owfkcpJlBvby/F2G1ejPnYi1EfefHmRx6M/NCD1zj+4Zs9eGWTBy9/4MEw+nppowfz9pUpFyFaMwRTIut5TrzPEiceWeYyrd487o2tXuSpAz6YUYVH+X3/BP3+4dRzsRPjtpWikhEpdsJSg0FrXMr4+sU70V9TQlADeJ5QPRJy3n7x/I7t6q/PKL6iMUMwv0jj5Jc78Rj1eATqu7QEbzE6tKv/VVYVBq50Eqh+/3Dqs6QE47d7a2FKur6wXiDp9w8nuQBTd5cqvqIxQzD3EaaAjHTyGsx8FebX2VV4ahX9RTj5WMKUefXj+N7/rIFg7k+vwhMrJMWDJzerhzlYqVsazG9yqvD0avrj5PX6h1Nvwnw7BOZJwnyeMAdE4E8yTi52g8E8wBoXE5hcZcW+y63GM6xxkUxepAtz3U8JJmvcAMKUkz+6rCTYagrzuc+SYrwRAvMIYQ7mCi+Lg1lf8rkXYY4jzIo6kdk/gX1D+xvw9QjbPoQ5paFgHsyswpOE2T9eHYwMSpOBzwrMre5amEfzqvGcArNOf4O+ey0uJkzPD2AOCYUZ0jfc50coGV+DwTykwuxHmHJys+rFwY4MgXmMm26ZfN8I/fVUYYam+RCmeSTjG0D1bkiYhwlTVl9t8jIAM60GU+5MxIL71iBMoz5CW4E5NgTmCcJ8jjAjGZ9IgbnLq/iKxgzBlH2hBlMbgBn15GBfD4Ept5FDN7jwcIT+etSBKZGpwdTrX5/6U3KxJzcYTHVfKKuy1CWzksm//uFZmKeshLlR7oz0+4dT97hijNkWEpm8OM+ujWx8/SiJ9EkNCXPgaqbD0mL0TTCvbnEOjPjQVQvzNGG+SJg9lzh0+4dTV/obvc39A5iDCDOS8T1MdV/swMSGgil3LANXBdP14Xjz6rrIgeEhMJNs1Rj2gYsR69DtH04P0d+oj8/CPE6Yz6xxKumq178+9aHkYk/c6VF8RWOGYModi0RmD0aSnNysZPKvhsBMtlfjpU0udCNMvf7h1IX+3qoD8+k1Mj79/vWpNyWR/l5DwZQFqN+yYnSYV4jOC4tMq+3sQjy/wYnsEg1mDV7YUIIO8wsJpsi02s0tZNlw1j4fPcqtVn9lfPrnr08PUO3mFLIGuxVf0ZghmKmFNZi+x4txO9yY8KnHtKS+xR0oRVFp8CFsHqFO+9zL6HQq6W9WL37gxJx9Z28n5eGv+Ht7h/75w2nMdjfWftdAj+DkSXbJGT8cZX4URyAHIbrK/fCpD7QFgjz0SC+qUUCYlRwnj/Nqn7T7OD45T53zGpUc56mI/mm7IZiNZswMwbS4fdiVXI6dlLRm9UlSOQ5lVaKsMhhK8q5GfEXqb0diORfFSkZ60J/NQ388x84U/f7h9CmPPZJXpfiKxgzB3JtWyQWI25gEh9KaVfclRXhtq6zmwZc2+zMq0ZffR+qv2+Iipc5VqgvQocxKrszcs+r0DSc5psfSIkz6rIFW813JFVz1CpXVt9MC82o9244hXL2zS4Iw96RWKN9H6u++WXa8vOXsar4vvQL301fHCPx1pNrMsSv71mjNEMzdKRXoEifbiEI8uMi82s2144WNJchRYe5Lr0RXRlek/mTyw7k10iLzy4zgxY7EX2eq/Ty7EunRmiGYnzOSusQxkmTAPLlZtSHM50Ngfsk078rU78Co0OsfTq0I85WQfeZ+wuzE7ztGMD45ri1hjt7uUnxFY4ZhPhhnZyrZ0WmhnYM217aaY8OQjcW1MA+wxnVdUqj4M+ojtL1vtg3/2FLyQ5j8vsMC4z60VtR6rg2jGhJmZ8JsxysoAzYrmfyzG4pra+ZBruzdCDNSf/fMUmGqm/b9mUGY7Xlx9PrXp/up+3ix39zmVHxFY4ZgyoIhMNvMs6H9Amq+ubblLCsGbXDUwpRtUvelXJjEn0Efoe3d9Ddsc3EIzEolwtpGML521L2zrQ0IM40FnjBbMR3a8uRm1YKTf2b9WZiHswkznqtyhP7ummnF0BCYBxiZHRbalIuj178+taHuJsyRH5covqIxgzDLWah5BecUMDqtpnXXzAI8va4IWSrMr7jh7hHPdJ0dmb87ZhRg6CbCVGumBvO+Ofr961NrqsWsArzeUDD3KjCtvIIWRlOBaTWfYcHAtWdhyt2LwGwxKzJ/zaZb8PwHjrORmcV95kIrWvLi6PUPVUueU4JC+3wvdcdMC0b8f0PBTC9HR8JsQZhy8nvUQRhtmxHmk4SZWRyE+W1eJXom2HEnJ2bUR2jblDCfE5haZKowWxDmuY65m+dqQWgdljLD5hUwW/Jxz5zg+W/n98M/akCYHQjzzln5aMkBmFXT6fl4fE0hslSY3+cT5jIbmnNCev3D6dZp+Xh2Y1EtzIOE2X4hARFY3b6STc15/lbzC/AYgY09Vo6X9nnx0KpC3Mnzi5rOyMerHxUrvqIxQzC/UGHK5CU1zerWqfl4jDAzi6sVf0cJszdhNuMk9fqH083v52MwYZZXBx+bKTAXMF2ZAUofApRWIEoE9uLi99pXZVhk82MVb3RWcOGeklaNwTvdaBNnxU2Tc/GPDx2Kr2jMGExuiu9fJOmVp0SnWd08NQ+PrLYjw6HCLKhC7+U23Bahv5vez8MzGwprYR7KrkA7RmYzRpj8vjnbZtNy0THBhqF7vZiVU4MV3JMvYybHk5lIPks75lgFerJkjPi4gSJzX0Y5YUp65TI680zrpvdz0X+VrRbmcWsV+qyw4ZYI/f3vlFw8td7+A5htF1iUiyNjbDnPgqc+cWFSSpUCUCJRgxgq+d1KQp2V68PclErYgsOL2AzXzNbz8/E/k3MYZbmmdePEHPRabkW6CvMEI7PnMiv+e1Jk/v76XjbLhu0sTKb5vXPyFZB9Njkw+mg5FtsDWMmUTmDA6YEMlQZ8IyVvL7wRPnQ3BPN4QSVe3lqEJ9YV4mmml1k9usaOsTtLUOAOLkBZJdUY+2kJHltr1+0fTlIyJu521r4DOmWtxIvbS/DKoVLMyfP9KKWNalFRsJWncckVgLq+GTZDMGXQdq8PBR5RDawhMvLZQohFZT7UqE/Gq9nKZ/k+tL9R33Kcg8eLlTOKDnsCWFzgQzyjcPk5UtqollBxhLqSvnZ5ADMP4A3B/Fe19MpgFK1gFEokGklpo1osItQ19HuwFFDfUtdrhmCmFlUj/huPogRFbrU19jnuKxc+PFUGZ3lwRGmsnUtr+5jzlfCtG+uSyvFxSQBrOVGJJJEekGi1lBKgcpE2s3QcLQugUnslqmOGYG45WYq/T8/B36fl4Ba2ZvW3KdnovZILkLrP/Oh0Kf5varZpfzdPy8ats3PR4TM3Xsn3YyEnu0xVAqUHJBqJz+VqtE+3VOGl0w4cd7OYnsMMwdx43IvrJ2bhL9RfJwV1g9oa+fz7CRnovNSiRLjY5hOluO69zFp/Rn1dz2Nu5EVouduNnjZgSCEwjRNVooetQK0LJFIJRPG30O7D8GQX2h3MRdv92fjOGQOYymSoGydzcpSZ9pp3MtElXmAGq/mWk178eWJmEFSdvvW1N/CYvzE67xWYdqCHFehHqMOsAUy0+BHH75YTQDRRuowQV1CL7X6MyShD928K0HxvJm7+PB3tDuTgiCsGMGXyousnmdfvxqfjgaX5SHUEYW5m2fgTo8ysv7+8l4EbpmYpMHsRXE/CFKDdqV55fgyjZtgCWFoYUCLLDFSBuFLZTgUwJbcCTxzjvfsXWWi6JxPNqNv2ZKB9LGBuIMw/cSKiP080r6veTkOnJXm1kbmJkXntu+b9XfduOq5/Pwv3sGZqMDUJ1G4FjNQcP0bm846Gm/ZlTH+t5p1LAlx2A/HsO9NSjWGJTtzHdL7t8ww0Y0TeripmMNcf8+IPnLwA+CMBmNXl49LQIQTmBye8+P07GYpPvf7n0rXvpOO6KZm4+zPXj2BqkijtXhDAU7l+jJVFilAlbSXy6oJcTohSFqbnV+OlRDc6HuY9PaNQolGDGHOY6455OPl0RX9gdJjVZWNT0X5xLlJUmBsJ8+oJ5v1dMyENf5yciRb1wNTUjeqeG8BQ3hFNIlxJfYGqLFRqSs+3+TAixYsHD1kVgAIsNBrPG8yrOZGrVABm9dsxqWgbJzC5y6ZJDb5yfFotUKP6HY+5lrWzxa7wMDVJ6vdl6g9nlM6w+pHAdF7CaB2bcQYDvitSFpdbCUoPYKhiBnPtUY8y+SsUAOb169EpaLMwB8mFQZgbjntw+dupKlDjuorHXMN0v9METFEPrvgPWQJ4nAvUuAI/Bp9y4Z4vsnEL62JTHXB6ihnM1UfdrHup+C/Wviu5mFxBmWkvfisFrQgzqTCY5hLp/8nUl1pq1Ie0V/CYqwnzjp1O9DYIU1mYqAEE+ir3pa9wceqY5EWLb20KpGYGolIUM5irjrhZ91IIIIUAUgjVXPurN5Nw74LsEJhuXDomWfFn1Ie0l/GYK99NQ/NPSwzBFIi9qRfZdwrTWxYdicyHCbZrXg3u56Jz92FLEGgYqDGDuZIwLx2Tgt9QAsCsLnwjCS3nn4W5ljB/PTpZ8anX/1z6LY+5/J003B4GpqzoEpGDCW0CIS4ixBWULD5jCLOP9OPvRA9lV6HtcSfu/DKn3iiNGcwV37vwH5zIJdRvGB0SVWbaJiMT0WJeFhLVmrmGZeOSUUkqUGM+lJbHXDYhFc0+IUymbF2I2gb+MUIaxd/PJ8i69+4aTOkrx0jt7cHVvnNGOVodKUTzL5j6rKXnDeay79y4iBO5aFQioSaZVpPXT+OOuZlItAdhSg3+1VtJuJg+9fqfS5e8lYhLx6egaR2YGsS+1KuEM1NNadlDanvKc8FUgBK+QO1u8aFTailafm1VU/88wFzH1Veio8kbpxUI/05Jqync5yYjTqPZ7EycVmGuJMwmbyTiQtZSM74u4DEXs3beqsLUIPaihqh1UZ5D6t2f1wczFKqkfjfW0/an3bjrYF4QqLoHjQnMZO4PH0jIwQUjT+MCRkddXRjmc5MRp3DbnBCYR1zKhWnyZvhjQz//G4+5aFwybt5RjJ5qZA7k5Cfw59DHcaEQNRmBqUmBag0o9bT1MQea78tW9qLteJsZNcxAQB7oVmHqPgcGbynA4M2UtAY1cKMF43cXKa8dxA7nnsEz9DHIpJ/Bmy0YtNWK/t+XoT8nPJLROF8FdS6IoZJ+42zhYYqU1KeUeppegbu+saH1wRx87ypX5qBnhmBq5iNUeR8kf+MjrVFJf/m3OnJRND/ynVk/Ik91AJ94ApguKU0JIC3qwkn6vWPn1oiwpDzoQfyRCLQr2we54X8yvRSJpcEdiZ6ZgvmvYlIsjpwB1qsvzwRqXXB6MgtT9qkP8XZUNvyTiwM4WcGACA5B136SMDVz+IAvS7k7KA6+UQz3LsgoTPndg4TYi3VzRKEfu7x+VNXz7keznzRMzbKYeTs8wWeX8u5bXoRFCrMLIXZlnRxiC2C1yw+n1CSD9rOAKcZyipNcG+QtosCUSDUDU+piZwvwOKNxrtOPVKa0WfvZwNSMwQT5P/KknkqUhqa+HkxpH2A09mY0vusI4ECZjwuleZBiPzuYmuVXA3u93DIx9ReqqV8XptTFLpYAhrMubmVdLDWR0nr2s4UpJrvaVC7921lP5c5IUn8C95lyx9SJIAfx5xVuP3KqIvxLrTr2s4apmfxV2zGm/ibW09EE2Nfix4wSP44r/8Y8umgMtV8ETM2KGKo7vQHsLwtEndJ69ouCKSar/vmyXxzM82mNMGNojTBjaI0wY2iNMGNmwD8BHUnMNXggPnwAAAAASUVORK5CYII=;" vertex="1" parent="1">
          <mxGeometry x="182.63" y="150" width="72.62" height="70" as="geometry" />
        </mxCell>
        <mxCell id="0MEWNDIGGcsioCRRxmuL-14" value="" style="endArrow=classic;html=1;rounded=0;entryX=0;entryY=0.5;entryDx=0;entryDy=0;strokeWidth=2;dashed=1;dashPattern=8 8;exitX=1;exitY=0.25;exitDx=0;exitDy=0;" edge="1" parent="1" source="w646-Io4uiSVJ3ixSqgF-15" target="0MEWNDIGGcsioCRRxmuL-1">
          <mxGeometry width="50" height="50" relative="1" as="geometry">
            <mxPoint x="267" y="525" as="sourcePoint" />
            <mxPoint x="604" y="525" as="targetPoint" />
          </mxGeometry>
        </mxCell>
        <mxCell id="0MEWNDIGGcsioCRRxmuL-15" value="" style="endArrow=classic;html=1;rounded=0;entryX=0;entryY=0.5;entryDx=0;entryDy=0;strokeWidth=2;dashed=1;dashPattern=8 8;" edge="1" parent="1" source="0MEWNDIGGcsioCRRxmuL-6" target="w646-Io4uiSVJ3ixSqgF-35">
          <mxGeometry width="50" height="50" relative="1" as="geometry">
            <mxPoint x="267" y="525" as="sourcePoint" />
            <mxPoint x="604" y="315" as="targetPoint" />
          </mxGeometry>
        </mxCell>
        <mxCell id="0MEWNDIGGcsioCRRxmuL-16" value="" style="endArrow=classic;html=1;rounded=0;entryX=0;entryY=0.25;entryDx=0;entryDy=0;strokeWidth=2;dashed=1;dashPattern=8 8;exitX=1;exitY=0.5;exitDx=0;exitDy=0;" edge="1" parent="1" source="0MEWNDIGGcsioCRRxmuL-13" target="w646-Io4uiSVJ3ixSqgF-35">
          <mxGeometry width="50" height="50" relative="1" as="geometry">
            <mxPoint x="267" y="370" as="sourcePoint" />
            <mxPoint x="604" y="508" as="targetPoint" />
          </mxGeometry>
        </mxCell>
        <mxCell id="0MEWNDIGGcsioCRRxmuL-18" value="" style="endArrow=classic;html=1;rounded=0;strokeWidth=2;dashed=1;dashPattern=8 8;exitX=1;exitY=0.25;exitDx=0;exitDy=0;" edge="1" parent="1" source="0MEWNDIGGcsioCRRxmuL-13" target="0MEWNDIGGcsioCRRxmuL-3">
          <mxGeometry width="50" height="50" relative="1" as="geometry">
            <mxPoint x="267" y="165" as="sourcePoint" />
            <mxPoint x="620" y="458" as="targetPoint" />
          </mxGeometry>
        </mxCell>
      </root>
    </mxGraphModel>
  </diagram>
</mxfile>
